<mxfile host="app.diagrams.net" modified="2024-06-16T15:58:07.298Z" agent="Mozilla/5.0 (Windows NT 10.0; Win64; x64) AppleWebKit/537.36 (KHTML, like Gecko) Chrome/125.0.0.0 Safari/537.36" etag="dPYB679VuanHQ5jJq_gV" version="24.5.4" type="github">
  <diagram name="Page-1" id="PH0EOTBmrV3ndrdE_07v">
    <mxGraphModel dx="1509" dy="813" grid="0" gridSize="10" guides="1" tooltips="1" connect="1" arrows="1" fold="1" page="1" pageScale="1" pageWidth="1169" pageHeight="827" math="0" shadow="0">
      <root>
        <mxCell id="0" />
        <mxCell id="1" parent="0" />
        <mxCell id="5odJKKRHl2rGLeR0fUh_-2" value="AWS Cloud" style="points=[[0,0],[0.25,0],[0.5,0],[0.75,0],[1,0],[1,0.25],[1,0.5],[1,0.75],[1,1],[0.75,1],[0.5,1],[0.25,1],[0,1],[0,0.75],[0,0.5],[0,0.25]];outlineConnect=0;gradientColor=none;html=1;whiteSpace=wrap;fontSize=12;fontStyle=0;container=1;pointerEvents=0;collapsible=0;recursiveResize=0;shape=mxgraph.aws4.group;grIcon=mxgraph.aws4.group_aws_cloud;strokeColor=#232F3E;fillColor=none;verticalAlign=top;align=left;spacingLeft=30;fontColor=#232F3E;dashed=0;" vertex="1" parent="1">
          <mxGeometry x="80" y="51" width="1006" height="732" as="geometry" />
        </mxCell>
        <mxCell id="5odJKKRHl2rGLeR0fUh_-4" value="Region" style="points=[[0,0],[0.25,0],[0.5,0],[0.75,0],[1,0],[1,0.25],[1,0.5],[1,0.75],[1,1],[0.75,1],[0.5,1],[0.25,1],[0,1],[0,0.75],[0,0.5],[0,0.25]];outlineConnect=0;gradientColor=none;html=1;whiteSpace=wrap;fontSize=12;fontStyle=0;container=1;pointerEvents=0;collapsible=0;recursiveResize=0;shape=mxgraph.aws4.group;grIcon=mxgraph.aws4.group_region;strokeColor=#00A4A6;fillColor=none;verticalAlign=top;align=left;spacingLeft=30;fontColor=#147EBA;dashed=1;" vertex="1" parent="1">
          <mxGeometry x="121" y="97" width="914" height="651" as="geometry" />
        </mxCell>
        <mxCell id="5odJKKRHl2rGLeR0fUh_-1" value="VPC" style="points=[[0,0],[0.25,0],[0.5,0],[0.75,0],[1,0],[1,0.25],[1,0.5],[1,0.75],[1,1],[0.75,1],[0.5,1],[0.25,1],[0,1],[0,0.75],[0,0.5],[0,0.25]];outlineConnect=0;gradientColor=none;html=1;whiteSpace=wrap;fontSize=12;fontStyle=0;container=1;pointerEvents=0;collapsible=0;recursiveResize=0;shape=mxgraph.aws4.group;grIcon=mxgraph.aws4.group_vpc2;strokeColor=#8C4FFF;fillColor=none;verticalAlign=top;align=left;spacingLeft=30;fontColor=#AAB7B8;dashed=0;" vertex="1" parent="5odJKKRHl2rGLeR0fUh_-4">
          <mxGeometry x="30" y="103" width="846" height="529" as="geometry" />
        </mxCell>
        <mxCell id="5odJKKRHl2rGLeR0fUh_-9" value="Availability Zone" style="fillColor=none;strokeColor=#147EBA;dashed=1;verticalAlign=top;fontStyle=0;fontColor=#147EBA;whiteSpace=wrap;html=1;" vertex="1" parent="5odJKKRHl2rGLeR0fUh_-1">
          <mxGeometry x="54" y="31" width="347" height="479" as="geometry" />
        </mxCell>
        <mxCell id="5odJKKRHl2rGLeR0fUh_-5" value="Private subnet" style="points=[[0,0],[0.25,0],[0.5,0],[0.75,0],[1,0],[1,0.25],[1,0.5],[1,0.75],[1,1],[0.75,1],[0.5,1],[0.25,1],[0,1],[0,0.75],[0,0.5],[0,0.25]];outlineConnect=0;gradientColor=none;html=1;whiteSpace=wrap;fontSize=12;fontStyle=0;container=1;pointerEvents=0;collapsible=0;recursiveResize=0;shape=mxgraph.aws4.group;grIcon=mxgraph.aws4.group_security_group;grStroke=0;strokeColor=#00A4A6;fillColor=#E6F6F7;verticalAlign=top;align=left;spacingLeft=30;fontColor=#147EBA;dashed=0;" vertex="1" parent="5odJKKRHl2rGLeR0fUh_-1">
          <mxGeometry x="85" y="58" width="279" height="203" as="geometry" />
        </mxCell>
        <mxCell id="5odJKKRHl2rGLeR0fUh_-10" value="Public subnet" style="points=[[0,0],[0.25,0],[0.5,0],[0.75,0],[1,0],[1,0.25],[1,0.5],[1,0.75],[1,1],[0.75,1],[0.5,1],[0.25,1],[0,1],[0,0.75],[0,0.5],[0,0.25]];outlineConnect=0;gradientColor=none;html=1;whiteSpace=wrap;fontSize=12;fontStyle=0;container=1;pointerEvents=0;collapsible=0;recursiveResize=0;shape=mxgraph.aws4.group;grIcon=mxgraph.aws4.group_security_group;grStroke=0;strokeColor=#7AA116;fillColor=#F2F6E8;verticalAlign=top;align=left;spacingLeft=30;fontColor=#248814;dashed=0;" vertex="1" parent="5odJKKRHl2rGLeR0fUh_-1">
          <mxGeometry x="88" y="302" width="278" height="184" as="geometry" />
        </mxCell>
        <mxCell id="5odJKKRHl2rGLeR0fUh_-22" value="" style="outlineConnect=0;dashed=0;verticalLabelPosition=bottom;verticalAlign=top;align=center;html=1;shape=mxgraph.aws3.application_load_balancer;fillColor=#F58534;gradientColor=none;" vertex="1" parent="5odJKKRHl2rGLeR0fUh_-10">
          <mxGeometry x="99" y="59" width="69" height="72" as="geometry" />
        </mxCell>
        <mxCell id="5odJKKRHl2rGLeR0fUh_-11" value="Availability Zone" style="fillColor=none;strokeColor=#147EBA;dashed=1;verticalAlign=top;fontStyle=0;fontColor=#147EBA;whiteSpace=wrap;html=1;" vertex="1" parent="5odJKKRHl2rGLeR0fUh_-1">
          <mxGeometry x="453" y="29" width="347" height="481" as="geometry" />
        </mxCell>
        <mxCell id="5odJKKRHl2rGLeR0fUh_-12" value="Private subnet" style="points=[[0,0],[0.25,0],[0.5,0],[0.75,0],[1,0],[1,0.25],[1,0.5],[1,0.75],[1,1],[0.75,1],[0.5,1],[0.25,1],[0,1],[0,0.75],[0,0.5],[0,0.25]];outlineConnect=0;gradientColor=none;html=1;whiteSpace=wrap;fontSize=12;fontStyle=0;container=1;pointerEvents=0;collapsible=0;recursiveResize=0;shape=mxgraph.aws4.group;grIcon=mxgraph.aws4.group_security_group;grStroke=0;strokeColor=#00A4A6;fillColor=#E6F6F7;verticalAlign=top;align=left;spacingLeft=30;fontColor=#147EBA;dashed=0;" vertex="1" parent="5odJKKRHl2rGLeR0fUh_-1">
          <mxGeometry x="484" y="53" width="279" height="203" as="geometry" />
        </mxCell>
        <mxCell id="5odJKKRHl2rGLeR0fUh_-13" value="Public subnet" style="points=[[0,0],[0.25,0],[0.5,0],[0.75,0],[1,0],[1,0.25],[1,0.5],[1,0.75],[1,1],[0.75,1],[0.5,1],[0.25,1],[0,1],[0,0.75],[0,0.5],[0,0.25]];outlineConnect=0;gradientColor=none;html=1;whiteSpace=wrap;fontSize=12;fontStyle=0;container=1;pointerEvents=0;collapsible=0;recursiveResize=0;shape=mxgraph.aws4.group;grIcon=mxgraph.aws4.group_security_group;grStroke=0;strokeColor=#7AA116;fillColor=#F2F6E8;verticalAlign=top;align=left;spacingLeft=30;fontColor=#248814;dashed=0;" vertex="1" parent="5odJKKRHl2rGLeR0fUh_-1">
          <mxGeometry x="487" y="297" width="278" height="184" as="geometry" />
        </mxCell>
        <mxCell id="5odJKKRHl2rGLeR0fUh_-24" value="" style="outlineConnect=0;dashed=0;verticalLabelPosition=bottom;verticalAlign=top;align=center;html=1;shape=mxgraph.aws3.application_load_balancer;fillColor=#F58534;gradientColor=none;" vertex="1" parent="5odJKKRHl2rGLeR0fUh_-13">
          <mxGeometry x="119" y="64" width="69" height="72" as="geometry" />
        </mxCell>
        <mxCell id="5odJKKRHl2rGLeR0fUh_-15" value="" style="sketch=0;points=[[0,0,0],[0.25,0,0],[0.5,0,0],[0.75,0,0],[1,0,0],[0,1,0],[0.25,1,0],[0.5,1,0],[0.75,1,0],[1,1,0],[0,0.25,0],[0,0.5,0],[0,0.75,0],[1,0.25,0],[1,0.5,0],[1,0.75,0]];outlineConnect=0;fontColor=#232F3E;fillColor=#ED7100;strokeColor=#ffffff;dashed=0;verticalLabelPosition=bottom;verticalAlign=top;align=center;html=1;fontSize=12;fontStyle=0;aspect=fixed;shape=mxgraph.aws4.resourceIcon;resIcon=mxgraph.aws4.ec2;" vertex="1" parent="5odJKKRHl2rGLeR0fUh_-1">
          <mxGeometry x="104" y="101" width="35" height="35" as="geometry" />
        </mxCell>
        <mxCell id="5odJKKRHl2rGLeR0fUh_-16" value="" style="sketch=0;points=[[0,0,0],[0.25,0,0],[0.5,0,0],[0.75,0,0],[1,0,0],[0,1,0],[0.25,1,0],[0.5,1,0],[0.75,1,0],[1,1,0],[0,0.25,0],[0,0.5,0],[0,0.75,0],[1,0.25,0],[1,0.5,0],[1,0.75,0]];outlineConnect=0;fontColor=#232F3E;fillColor=#ED7100;strokeColor=#ffffff;dashed=0;verticalLabelPosition=bottom;verticalAlign=top;align=center;html=1;fontSize=12;fontStyle=0;aspect=fixed;shape=mxgraph.aws4.resourceIcon;resIcon=mxgraph.aws4.ec2;" vertex="1" parent="5odJKKRHl2rGLeR0fUh_-1">
          <mxGeometry x="104" y="153" width="34" height="34" as="geometry" />
        </mxCell>
        <mxCell id="5odJKKRHl2rGLeR0fUh_-30" value="" style="outlineConnect=0;dashed=0;verticalLabelPosition=bottom;verticalAlign=top;align=center;html=1;shape=mxgraph.aws3.rds_db_instance_read_replica;fillColor=#2E73B8;gradientColor=none;" vertex="1" parent="5odJKKRHl2rGLeR0fUh_-1">
          <mxGeometry x="511" y="204" width="35" height="40" as="geometry" />
        </mxCell>
        <mxCell id="5odJKKRHl2rGLeR0fUh_-31" style="edgeStyle=orthogonalEdgeStyle;rounded=0;orthogonalLoop=1;jettySize=auto;html=1;exitX=0.5;exitY=1;exitDx=0;exitDy=0;exitPerimeter=0;entryX=0.5;entryY=0.02;entryDx=0;entryDy=0;entryPerimeter=0;" edge="1" parent="5odJKKRHl2rGLeR0fUh_-1" source="5odJKKRHl2rGLeR0fUh_-16" target="5odJKKRHl2rGLeR0fUh_-29">
          <mxGeometry relative="1" as="geometry" />
        </mxCell>
        <mxCell id="5odJKKRHl2rGLeR0fUh_-32" style="edgeStyle=orthogonalEdgeStyle;rounded=0;orthogonalLoop=1;jettySize=auto;html=1;exitX=1;exitY=0.75;exitDx=0;exitDy=0;exitPerimeter=0;entryX=1;entryY=0.5;entryDx=0;entryDy=0;entryPerimeter=0;" edge="1" parent="5odJKKRHl2rGLeR0fUh_-1" source="5odJKKRHl2rGLeR0fUh_-15" target="5odJKKRHl2rGLeR0fUh_-29">
          <mxGeometry relative="1" as="geometry" />
        </mxCell>
        <mxCell id="5odJKKRHl2rGLeR0fUh_-34" style="edgeStyle=orthogonalEdgeStyle;rounded=0;orthogonalLoop=1;jettySize=auto;html=1;entryX=1;entryY=0.89;entryDx=0;entryDy=0;entryPerimeter=0;" edge="1" parent="5odJKKRHl2rGLeR0fUh_-1" source="5odJKKRHl2rGLeR0fUh_-30" target="5odJKKRHl2rGLeR0fUh_-29">
          <mxGeometry relative="1" as="geometry" />
        </mxCell>
        <mxCell id="5odJKKRHl2rGLeR0fUh_-35" style="edgeStyle=orthogonalEdgeStyle;rounded=0;orthogonalLoop=1;jettySize=auto;html=1;exitX=1;exitY=0.89;exitDx=0;exitDy=0;exitPerimeter=0;" edge="1" parent="5odJKKRHl2rGLeR0fUh_-1" source="5odJKKRHl2rGLeR0fUh_-29" target="5odJKKRHl2rGLeR0fUh_-30">
          <mxGeometry relative="1" as="geometry" />
        </mxCell>
        <mxCell id="5odJKKRHl2rGLeR0fUh_-29" value="" style="outlineConnect=0;dashed=0;verticalLabelPosition=bottom;verticalAlign=top;align=center;html=1;shape=mxgraph.aws3.rds_db_instance;fillColor=#2E73B8;gradientColor=none;" vertex="1" parent="5odJKKRHl2rGLeR0fUh_-1">
          <mxGeometry x="302" y="204" width="34" height="44" as="geometry" />
        </mxCell>
        <mxCell id="5odJKKRHl2rGLeR0fUh_-14" value="" style="sketch=0;points=[[0,0,0],[0.25,0,0],[0.5,0,0],[0.75,0,0],[1,0,0],[0,1,0],[0.25,1,0],[0.5,1,0],[0.75,1,0],[1,1,0],[0,0.25,0],[0,0.5,0],[0,0.75,0],[1,0.25,0],[1,0.5,0],[1,0.75,0]];outlineConnect=0;fontColor=#232F3E;fillColor=#ED7100;strokeColor=#ffffff;dashed=0;verticalLabelPosition=bottom;verticalAlign=top;align=center;html=1;fontSize=12;fontStyle=0;aspect=fixed;shape=mxgraph.aws4.resourceIcon;resIcon=mxgraph.aws4.eks;" vertex="1" parent="5odJKKRHl2rGLeR0fUh_-4">
          <mxGeometry x="432" y="28" width="50" height="50" as="geometry" />
        </mxCell>
        <mxCell id="5odJKKRHl2rGLeR0fUh_-18" value="" style="edgeStyle=orthogonalEdgeStyle;html=1;endArrow=none;elbow=vertical;startArrow=block;startFill=1;strokeColor=#545B64;rounded=0;entryX=0.5;entryY=1;entryDx=0;entryDy=0;entryPerimeter=0;exitX=1;exitY=0.5;exitDx=0;exitDy=0;exitPerimeter=0;" edge="1" parent="5odJKKRHl2rGLeR0fUh_-4" source="5odJKKRHl2rGLeR0fUh_-16" target="5odJKKRHl2rGLeR0fUh_-14">
          <mxGeometry width="100" relative="1" as="geometry">
            <mxPoint x="259" y="277" as="sourcePoint" />
            <mxPoint x="359" y="277" as="targetPoint" />
          </mxGeometry>
        </mxCell>
        <mxCell id="5odJKKRHl2rGLeR0fUh_-21" value="" style="edgeStyle=orthogonalEdgeStyle;html=1;endArrow=none;elbow=vertical;startArrow=block;startFill=1;strokeColor=#545B64;rounded=0;entryX=0.5;entryY=1;entryDx=0;entryDy=0;entryPerimeter=0;exitX=1;exitY=0.5;exitDx=0;exitDy=0;exitPerimeter=0;" edge="1" parent="5odJKKRHl2rGLeR0fUh_-4" source="5odJKKRHl2rGLeR0fUh_-23" target="5odJKKRHl2rGLeR0fUh_-14">
          <mxGeometry width="100" relative="1" as="geometry">
            <mxPoint x="259" y="402" as="sourcePoint" />
            <mxPoint x="359" y="402" as="targetPoint" />
            <Array as="points">
              <mxPoint x="190" y="201" />
              <mxPoint x="457" y="201" />
            </Array>
          </mxGeometry>
        </mxCell>
        <mxCell id="5odJKKRHl2rGLeR0fUh_-17" value="" style="sketch=0;points=[[0,0,0],[0.25,0,0],[0.5,0,0],[0.75,0,0],[1,0,0],[0,1,0],[0.25,1,0],[0.5,1,0],[0.75,1,0],[1,1,0],[0,0.25,0],[0,0.5,0],[0,0.75,0],[1,0.25,0],[1,0.5,0],[1,0.75,0]];outlineConnect=0;fontColor=#232F3E;fillColor=#ED7100;strokeColor=#ffffff;dashed=0;verticalLabelPosition=bottom;verticalAlign=top;align=center;html=1;fontSize=12;fontStyle=0;aspect=fixed;shape=mxgraph.aws4.resourceIcon;resIcon=mxgraph.aws4.ec2;" vertex="1" parent="5odJKKRHl2rGLeR0fUh_-4">
          <mxGeometry x="540" y="222" width="36" height="36" as="geometry" />
        </mxCell>
        <mxCell id="5odJKKRHl2rGLeR0fUh_-33" style="edgeStyle=orthogonalEdgeStyle;rounded=0;orthogonalLoop=1;jettySize=auto;html=1;entryX=0.5;entryY=0.02;entryDx=0;entryDy=0;entryPerimeter=0;" edge="1" parent="5odJKKRHl2rGLeR0fUh_-4" source="5odJKKRHl2rGLeR0fUh_-17" target="5odJKKRHl2rGLeR0fUh_-30">
          <mxGeometry relative="1" as="geometry" />
        </mxCell>
        <mxCell id="5odJKKRHl2rGLeR0fUh_-36" value="" style="edgeStyle=orthogonalEdgeStyle;html=1;endArrow=none;elbow=vertical;startArrow=block;startFill=1;strokeColor=#545B64;rounded=0;entryX=0.5;entryY=1;entryDx=0;entryDy=0;entryPerimeter=0;exitX=0;exitY=0.5;exitDx=0;exitDy=0;exitPerimeter=0;" edge="1" parent="5odJKKRHl2rGLeR0fUh_-4" source="5odJKKRHl2rGLeR0fUh_-17" target="5odJKKRHl2rGLeR0fUh_-14">
          <mxGeometry width="100" relative="1" as="geometry">
            <mxPoint x="435" y="288" as="sourcePoint" />
            <mxPoint x="535" y="288" as="targetPoint" />
          </mxGeometry>
        </mxCell>
        <mxCell id="5odJKKRHl2rGLeR0fUh_-23" value="Elastic Load Balancing" style="sketch=0;outlineConnect=0;gradientColor=none;html=1;whiteSpace=wrap;fontSize=12;fontStyle=0;shape=mxgraph.aws4.groupCenter;grIcon=mxgraph.aws4.group_elastic_load_balancing;grStroke=1;strokeColor=#007DBC;fillColor=none;verticalAlign=top;align=center;fontColor=#007DBC;dashed=0;spacingTop=25;" vertex="1" parent="5odJKKRHl2rGLeR0fUh_-4">
          <mxGeometry x="126" y="191" width="633" height="104" as="geometry" />
        </mxCell>
        <mxCell id="5odJKKRHl2rGLeR0fUh_-25" style="edgeStyle=orthogonalEdgeStyle;rounded=0;orthogonalLoop=1;jettySize=auto;html=1;" edge="1" parent="5odJKKRHl2rGLeR0fUh_-4" source="5odJKKRHl2rGLeR0fUh_-22" target="5odJKKRHl2rGLeR0fUh_-23">
          <mxGeometry relative="1" as="geometry" />
        </mxCell>
        <mxCell id="5odJKKRHl2rGLeR0fUh_-26" style="edgeStyle=orthogonalEdgeStyle;rounded=0;orthogonalLoop=1;jettySize=auto;html=1;" edge="1" parent="5odJKKRHl2rGLeR0fUh_-4" source="5odJKKRHl2rGLeR0fUh_-24" target="5odJKKRHl2rGLeR0fUh_-23">
          <mxGeometry relative="1" as="geometry" />
        </mxCell>
        <mxCell id="5odJKKRHl2rGLeR0fUh_-37" value="" style="edgeStyle=orthogonalEdgeStyle;html=1;endArrow=none;elbow=vertical;startArrow=block;startFill=1;strokeColor=#545B64;rounded=0;entryX=0.5;entryY=1;entryDx=0;entryDy=0;entryPerimeter=0;exitX=1;exitY=0.5;exitDx=0;exitDy=0;exitPerimeter=0;" edge="1" parent="5odJKKRHl2rGLeR0fUh_-4" source="5odJKKRHl2rGLeR0fUh_-15" target="5odJKKRHl2rGLeR0fUh_-23">
          <mxGeometry width="100" relative="1" as="geometry">
            <mxPoint x="290" y="319" as="sourcePoint" />
            <mxPoint x="578" y="175" as="targetPoint" />
            <Array as="points">
              <mxPoint x="311" y="319" />
            </Array>
          </mxGeometry>
        </mxCell>
        <mxCell id="5odJKKRHl2rGLeR0fUh_-38" value="" style="sketch=0;points=[[0,0,0],[0.25,0,0],[0.5,0,0],[0.75,0,0],[1,0,0],[0,1,0],[0.25,1,0],[0.5,1,0],[0.75,1,0],[1,1,0],[0,0.25,0],[0,0.5,0],[0,0.75,0],[1,0.25,0],[1,0.5,0],[1,0.75,0]];outlineConnect=0;fontColor=#232F3E;fillColor=#8C4FFF;strokeColor=#ffffff;dashed=0;verticalLabelPosition=bottom;verticalAlign=top;align=center;html=1;fontSize=12;fontStyle=0;aspect=fixed;shape=mxgraph.aws4.resourceIcon;resIcon=mxgraph.aws4.route_53;" vertex="1" parent="5odJKKRHl2rGLeR0fUh_-4">
          <mxGeometry x="791" y="22" width="62" height="62" as="geometry" />
        </mxCell>
        <mxCell id="5odJKKRHl2rGLeR0fUh_-39" style="edgeStyle=orthogonalEdgeStyle;rounded=0;orthogonalLoop=1;jettySize=auto;html=1;entryX=0.5;entryY=1;entryDx=0;entryDy=0;entryPerimeter=0;" edge="1" parent="5odJKKRHl2rGLeR0fUh_-4" source="5odJKKRHl2rGLeR0fUh_-38" target="5odJKKRHl2rGLeR0fUh_-24">
          <mxGeometry relative="1" as="geometry" />
        </mxCell>
        <mxCell id="5odJKKRHl2rGLeR0fUh_-40" style="edgeStyle=orthogonalEdgeStyle;rounded=0;orthogonalLoop=1;jettySize=auto;html=1;entryX=0.5;entryY=1;entryDx=0;entryDy=0;entryPerimeter=0;" edge="1" parent="5odJKKRHl2rGLeR0fUh_-4" source="5odJKKRHl2rGLeR0fUh_-38" target="5odJKKRHl2rGLeR0fUh_-22">
          <mxGeometry relative="1" as="geometry">
            <Array as="points">
              <mxPoint x="765" y="53" />
              <mxPoint x="765" y="578" />
              <mxPoint x="251" y="578" />
            </Array>
          </mxGeometry>
        </mxCell>
      </root>
    </mxGraphModel>
  </diagram>
</mxfile>
